<svg width="250" height="74" viewBox="0 0 250 74" fill="none" xmlns="http://www.w3.org/2000/svg">
<g clip-path="url(#clip0_426_11693)">
<path d="M69.8496 24.2959L71.4881 22.8161C76.3182 25.936 77.0814 26.6946 78.3996 26.6946C80.6359 26.6946 82.3544 25.936 83.4699 24.734C83.9502 24.2532 84.2277 23.9326 84.2277 23.0138V22.2125C84.2277 21.2562 83.7901 20.9357 82.1516 20.6151L73.9645 18.9751C70.9704 18.3768 70.4527 16.5391 70.4527 14.3381C70.4527 10.4222 74.5676 7.7832 78.96 7.7832C82.1943 7.7832 85.0283 9.50339 86.6294 12.3828L85.0336 13.8199C80.7213 11.0206 80.1609 10.3848 78.9654 10.3848C77.0066 10.3848 75.2134 11.0633 74.0926 12.2653C73.7724 12.666 73.3721 12.9438 73.3721 14.0229V14.7815C73.3721 15.7805 73.8524 16.0583 75.4909 16.3788L83.678 18.0188C86.6348 18.6172 87.1898 20.4976 87.1898 22.6986C87.1898 26.6572 82.9949 29.2962 78.405 29.2962C74.7704 29.2962 71.6535 27.4585 69.8603 24.3013L69.8496 24.2959Z" fill="#1D1E1C"/>
<path d="M92.1406 8.38687H95.0974L95.3749 10.8229C97.0507 8.78219 99.0468 7.7832 101.566 7.7832C105.958 7.7832 109.753 11.3411 109.753 15.7003V21.3791C109.753 25.6956 105.958 29.2909 101.566 29.2909C99.0095 29.2909 96.896 28.0515 95.3749 26.2511V36.0861H92.1406V8.38687ZM106.556 15.0646C106.556 14.3434 106.519 13.5474 106.199 13.0239C105.2 11.2663 103.402 10.3848 101.566 10.3848C100.328 10.3848 99.9274 10.9832 95.3749 13.5848V23.4999C99.9274 26.0962 100.328 26.6999 101.566 26.6999C103.402 26.6999 105.2 25.8184 106.199 24.0235C106.519 23.5427 106.556 22.7467 106.556 22.0255V15.0699V15.0646Z" fill="#1D1E1C"/>
<path d="M115.34 27.373C114.182 26.2138 113.584 24.5737 113.584 22.8161C113.584 21.0585 114.262 19.3758 115.34 18.3768C116.696 17.1 118.654 16.5764 120.613 16.4162L127.364 15.8553V14.4556C127.364 13.8573 127.322 13.2963 127.124 12.8583C126.164 11.2182 124.167 10.3795 122.374 10.3795C121.019 10.3795 120.778 10.497 115.623 13.8947L113.867 12.5378C115.425 9.46065 119.017 7.7832 122.374 7.7832C125.171 7.7832 127.444 8.82493 128.923 10.2994C130.561 11.9394 130.599 13.697 130.599 15.6149V28.6872H127.685L127.364 26.2511C125.689 28.1316 123.33 29.2909 120.613 29.2909C118.617 29.2909 116.541 28.6498 115.34 27.373ZM127.359 23.4946V18.4996L121.211 19.1407C119.732 19.301 117.976 19.5414 117.219 20.941C117.021 21.2989 116.978 21.7797 116.978 22.2178V23.1794C116.978 23.8578 117.021 24.5363 117.219 24.937C117.859 26.0962 119.497 26.6946 120.89 26.6946C122.646 26.6946 122.566 26.2138 127.359 23.4946Z" fill="#1D1E1C"/>
<path d="M135.27 20.3806V16.6624C135.27 11.8652 139.384 7.78906 144.375 7.78906C147.732 7.78906 150.646 9.54664 152.322 12.3887L150.683 13.8685C146.168 11.0318 145.65 10.3907 144.375 10.3907C142.298 10.3907 140.34 11.55 139.102 13.3075C138.584 13.9486 138.584 14.7072 138.584 15.5459V21.5025C138.584 22.3412 138.584 23.0998 139.102 23.7836C140.34 25.5412 142.298 26.7004 144.375 26.7004C145.65 26.7004 146.291 26.1822 150.806 23.4203L152.322 24.7398C150.646 27.5765 147.726 29.2967 144.375 29.2967C139.384 29.2967 135.27 25.3008 135.27 20.3806Z" fill="#1D1E1C"/>
<path d="M159.111 19.7021V21.5025C159.111 22.3412 159.111 23.0998 159.628 23.7836C160.867 25.5412 162.825 26.7004 164.901 26.7004C166.177 26.7004 166.86 26.1021 171.37 23.3402L172.886 24.6597C171.247 27.5765 168.253 29.2967 164.896 29.2967C159.906 29.2967 155.791 25.3008 155.791 20.3806V16.6624C155.791 11.8652 159.906 7.78906 164.896 7.78906C169.886 7.78906 173.724 11.785 173.724 16.3045V19.7021H159.105H159.111ZM159.111 17.186H170.532V15.3055C170.532 14.4668 170.532 13.7456 170.014 13.0671C168.856 11.4271 166.978 10.3907 164.901 10.3907C162.825 10.3907 160.867 11.55 159.628 13.3075C159.111 13.9486 159.111 14.7072 159.111 15.5459V17.186Z" fill="#1D1E1C"/>
<path d="M177.238 24.2959L178.877 22.8161C183.707 25.936 184.47 26.6946 185.788 26.6946C188.025 26.6946 189.743 25.936 190.859 24.734C191.339 24.2532 191.616 23.9326 191.616 23.0138V22.2125C191.616 21.2562 191.179 20.9357 189.54 20.6151L181.353 18.9751C178.359 18.3768 177.841 16.5391 177.841 14.3381C177.841 10.4222 181.956 7.7832 186.349 7.7832C189.583 7.7832 192.417 9.50339 194.018 12.3828L192.422 13.8199C188.11 11.0206 187.55 10.3848 186.354 10.3848C184.395 10.3848 182.602 11.0633 181.481 12.2653C181.161 12.666 180.761 12.9438 180.761 14.0229V14.7815C180.761 15.7805 181.241 16.0583 182.88 16.3788L191.067 18.0188C194.023 18.6172 194.578 20.4976 194.578 22.6986C194.578 26.6572 190.384 29.2962 185.794 29.2962C182.159 29.2962 179.042 27.4585 177.249 24.3013L177.238 24.2959Z" fill="#1D1E1C"/>
<path d="M199.521 0.475586H202.756V10.8287C204.271 9.02843 206.748 7.78904 208.947 7.78904C212.699 7.78904 215.976 10.8661 215.976 14.5469V28.6984H212.741V14.1462C212.741 13.5479 212.699 12.9496 212.501 12.5489C211.743 11.192 210.345 10.3907 208.947 10.3907C208.029 10.3907 207.308 10.989 202.756 13.5907V28.7037H199.521V0.475586Z" fill="#1D1E1C"/>
<path d="M221.047 3.6697V2.51044C221.047 1.27105 221.927 0.469727 223.203 0.469727C224.479 0.469727 225.439 1.27105 225.439 2.51044V3.6697C225.439 4.90908 224.521 5.71041 223.203 5.71041C221.885 5.71041 221.047 4.90908 221.047 3.6697ZM221.607 8.38685H224.842V28.6925H221.607V8.38685Z" fill="#1D1E1C"/>
<path d="M230.713 8.38687H233.67L233.947 10.8229C235.623 8.78219 237.619 7.7832 240.138 7.7832C244.531 7.7832 248.325 11.3411 248.325 15.7003V21.3791C248.325 25.6956 244.531 29.2909 240.138 29.2909C237.582 29.2909 235.463 28.0515 233.947 26.2511V36.0861H230.713V8.38687ZM245.128 15.0646C245.128 14.3434 245.086 13.5474 244.771 13.0239C243.773 11.2663 241.974 10.3848 240.138 10.3848C238.9 10.3848 238.5 10.9832 233.947 13.5848V23.4999C238.5 26.0962 238.9 26.6999 240.138 26.6999C241.974 26.6999 243.773 25.8184 244.771 24.0235C245.091 23.5427 245.128 22.7467 245.128 22.0255V15.0699V15.0646Z" fill="#1D1E1C"/>
<path d="M71.0117 37.7803H74.246V66.0031H71.0117V37.7803Z" fill="#1D1E1C"/>
<path d="M80.3985 64.6836C79.2403 63.5243 78.6426 61.8842 78.6426 60.1267C78.6426 58.3691 79.3204 56.6863 80.3985 55.6873C81.7541 54.4105 83.7128 53.887 85.6715 53.7267L92.4229 53.1658V51.7661C92.4229 51.1678 92.3802 50.6069 92.1828 50.1688C91.2221 48.5288 89.226 47.69 87.4328 47.69C86.0771 47.69 85.837 47.8076 80.6813 51.2052L78.9254 49.8483C80.4839 46.7712 84.0757 45.0938 87.4328 45.0938C90.2294 45.0938 92.503 46.1355 93.9814 47.6099C95.6199 49.25 95.6572 51.0076 95.6572 52.9254V65.9977H92.7432L92.4229 63.5617C90.7471 65.4421 88.3881 66.6014 85.6715 66.6014C83.6755 66.6014 81.5993 65.9603 80.3985 64.6836ZM92.4176 60.8051V55.8102L86.2693 56.4512C84.7909 56.6115 83.035 56.8519 82.2771 58.2516C82.0797 58.6095 82.037 59.0903 82.037 59.5283V60.4899C82.037 61.1684 82.0797 61.8468 82.2771 62.2475C82.9176 63.4068 84.5561 64.0051 85.949 64.0051C87.705 64.0051 87.6249 63.5243 92.4176 60.8051Z" fill="#1D1E1C"/>
<path d="M101.203 45.6974H104.16L104.437 48.1335C105.953 46.3331 108.43 45.0938 110.628 45.0938C114.38 45.0938 117.657 48.1708 117.657 51.8516V66.0031H114.423V51.451C114.423 50.8526 114.38 50.2543 114.183 49.8536C113.425 48.4967 112.027 47.6954 110.628 47.6954C109.71 47.6954 108.99 48.2937 104.437 50.8954V66.0084H101.203V45.7028V45.6974Z" fill="#1D1E1C"/>
<path d="M122.928 69.443L124.406 68.0433C129.076 70.8426 129.839 71.4036 131.158 71.4036C133.357 71.4036 135.273 70.2817 136.511 68.5241C137.029 67.8457 137.029 67.0871 137.029 66.2484V62.9683C135.513 64.806 133.437 66.008 130.88 66.008C126.445 66.008 122.65 62.4501 122.65 58.1336V53.0158C122.65 48.6565 126.445 45.0986 130.88 45.0986C133.394 45.0986 135.353 46.0976 137.029 48.1383L137.306 45.7023H140.263V65.8904C140.263 70.8052 136.351 74.0052 131.158 74.0052C127.683 74.0052 124.689 72.285 122.928 69.4483V69.443ZM137.029 60.2063V50.8949C132.513 48.2933 132.076 47.6949 130.88 47.6949C129.002 47.6949 127.208 48.5711 126.21 50.334C125.933 50.8522 125.89 51.6535 125.89 52.3747V58.7319C125.89 59.4531 125.933 60.2491 126.21 60.7726C127.208 62.5302 129.007 63.4117 130.88 63.4117C132.076 63.4117 132.519 62.8133 137.029 60.2117V60.2063Z" fill="#1D1E1C"/>
<path d="M145.81 45.6967H149.044V60.2489C149.044 60.8472 149.087 61.4455 149.284 61.8462C150.042 63.2031 151.441 64.0044 152.876 64.0044C153.794 64.0044 154.472 63.4061 159.025 60.8045V45.6914H162.259V65.9971H159.302L159.025 63.561C157.509 65.3613 155.033 66.6007 152.876 66.6007C149.082 66.6007 145.805 63.5236 145.805 59.8482V45.6967H145.81Z" fill="#1D1E1C"/>
<path d="M168.412 64.6836C167.254 63.5243 166.656 61.8842 166.656 60.1267C166.656 58.3691 167.334 56.6863 168.412 55.6873C169.768 54.4105 171.726 53.887 173.685 53.7267L180.437 53.1658V51.7661C180.437 51.1678 180.394 50.6069 180.196 50.1688C179.236 48.5288 177.24 47.69 175.446 47.69C174.091 47.69 173.851 47.8076 168.695 51.2052L166.939 49.8483C168.498 46.7712 172.089 45.0938 175.446 45.0938C178.243 45.0938 180.517 46.1355 181.995 47.6099C183.634 49.25 183.671 51.0076 183.671 52.9254V65.9977H180.757L180.437 63.5617C178.761 65.4421 176.402 66.6014 173.685 66.6014C171.689 66.6014 169.613 65.9603 168.412 64.6836ZM180.431 60.8051V55.8102L174.283 56.4512C172.805 56.6115 171.049 56.8519 170.291 58.2516C170.093 58.6095 170.051 59.0903 170.051 59.5283V60.4899C170.051 61.1684 170.093 61.8468 170.291 62.2475C170.931 63.4068 172.57 64.0051 173.963 64.0051C175.719 64.0051 175.639 63.5243 180.431 60.8051Z" fill="#1D1E1C"/>
<path d="M188.94 69.443L190.418 68.0433C195.088 70.8426 195.851 71.4036 197.169 71.4036C199.368 71.4036 201.284 70.2817 202.523 68.5241C203.04 67.8457 203.04 67.0871 203.04 66.2484V62.9683C201.524 64.806 199.448 66.008 196.892 66.008C192.457 66.008 188.662 62.4501 188.662 58.1336V53.0158C188.662 48.6565 192.457 45.0986 196.892 45.0986C199.406 45.0986 201.364 46.0976 203.04 48.1383L203.318 45.7023H206.275V65.8904C206.275 70.8052 202.362 74.0052 197.169 74.0052C193.695 74.0052 190.701 72.285 188.94 69.4483V69.443ZM203.035 60.2063V50.8949C198.52 48.2933 198.082 47.6949 196.887 47.6949C195.008 47.6949 193.215 48.5711 192.217 50.334C191.939 50.8522 191.896 51.6535 191.896 52.3747V58.7319C191.896 59.4531 191.939 60.2491 192.217 60.7726C193.215 62.5302 195.013 63.4117 196.887 63.4117C198.082 63.4117 198.525 62.8133 203.035 60.2117V60.2063Z" fill="#1D1E1C"/>
<path d="M214.542 57.0117V58.812C214.542 59.6508 214.542 60.4093 215.06 61.0931C216.298 62.8507 218.257 64.01 220.333 64.01C221.609 64.01 222.292 63.4117 226.802 60.6497L228.317 61.9693C226.679 64.8861 223.685 66.6063 220.328 66.6063C215.338 66.6063 211.223 62.6103 211.223 57.6902V53.972C211.223 49.1747 215.338 45.0986 220.328 45.0986C225.318 45.0986 229.155 49.0946 229.155 53.6141V57.0117H214.537H214.542ZM214.542 54.4955H225.964V52.6151C225.964 51.7764 225.964 51.0552 225.446 50.3767C224.288 48.7367 222.409 47.7003 220.333 47.7003C218.257 47.7003 216.298 48.8595 215.06 50.6171C214.542 51.2582 214.542 52.0168 214.542 52.8555V54.4955Z" fill="#1D1E1C"/>
<path d="M232.67 61.6065L234.308 60.1267C239.138 63.2465 239.896 64.0051 241.22 64.0051C243.456 64.0051 245.175 63.2465 246.29 62.0445C246.771 61.5637 247.048 61.2432 247.048 60.3243V59.523C247.048 58.5667 246.61 58.2462 244.972 57.9257L236.785 56.2856C233.791 55.6873 233.268 53.8496 233.268 51.6486C233.268 47.7328 237.383 45.0938 241.775 45.0938C245.009 45.0938 247.849 46.8139 249.444 49.6934L247.849 51.1304C243.536 48.3311 242.976 47.6954 241.775 47.6954C239.816 47.6954 238.023 48.3739 236.902 49.5758C236.582 49.9765 236.182 50.2543 236.182 51.3334V52.092C236.182 53.091 236.662 53.3688 238.301 53.6893L246.488 55.3294C249.444 55.9277 249.999 57.8082 249.999 60.0091C249.999 63.9677 245.804 66.6067 241.215 66.6067C237.58 66.6067 234.463 64.769 232.67 61.6118V61.6065Z" fill="#1D1E1C"/>
<path d="M51.4656 63.6148C48.258 61.948 47.7243 60.5697 47.388 59.6455C46.4327 57.0439 48.6529 52.8129 48.6529 52.8129L48.6316 52.8342C50.5743 49.2016 51.6791 45.0507 51.6791 40.638C51.6791 34.4411 49.6029 28.6715 45.8723 24.3016C42.8035 20.7063 37.6372 19.531 37.6372 19.531L37.4504 15.3374L39.4464 13.083L44.2285 7.68741C39.5478 2.9382 33.0473 0 25.8582 0C11.5762 0 0 11.5872 0 25.8829C0 30.9794 1.55843 35.6751 4.01349 39.7352C6.44187 43.7472 13.1933 46.1992 13.1933 46.1992L13.4655 50.7294L6.86884 58.2352C11.5922 63.3263 18.3329 66.5156 25.8208 66.5156C31.174 66.5156 36.1481 64.8862 40.2737 62.0976C40.8875 62.7226 42.1737 63.7483 44.8316 65.0946C47.6922 66.5476 50.6864 66.2218 52.533 65.7784L52.9279 64.1543C52.4796 64.0422 51.9673 63.8712 51.4656 63.6094V63.6148Z" fill="#F9D136"/>
</g>
<defs>
<clipPath id="clip0_426_11693">
<rect width="250" height="74" fill="white"/>
</clipPath>
</defs>
</svg>
